<svg width="23" height="24" viewBox="0 0 23 24" xmlns="http://www.w3.org/2000/svg">
    <g fill="#FFF" fill-rule="evenodd">
        <path d="M17.638 4v4.828l.5-.5H14a.5.5 0 1 0 0 1h4.638V4a.5.5 0 1 0-1 0z"/>
        <path d="M11.826 4.5c2.616 0 4.645 1.55 5.999 4.274 0 0 .649-.922.518-1.149-1.51-2.607-3.72-4.125-6.517-4.125A8.326 8.326 0 0 0 3.5 11.826h1A7.326 7.326 0 0 1 11.826 4.5zM4.5 19.448V16l-.5.5h4.138a.5.5 0 1 0 0-1H3.5v3.948a.5.5 0 0 0 1 0z"/>
        <path d="M11.013 19.326a7.322 7.322 0 0 1-6.312-3.604c-.09-.152-1.149-.022-1.149-.022A8.325 8.325 0 0 0 19.338 12h-1a7.325 7.325 0 0 1-7.325 7.326z"/>
    </g>
</svg>
