<svg xmlns="http://www.w3.org/2000/svg" width="14" height="14" viewBox="0 0 14 14">
    <g fill="none" fill-rule="evenodd" transform="translate(-9 -9)">
        <circle cx="16" cy="16" r="16" stroke="#000"/>
        <g fill="#000" fill-rule="nonzero">
            <path d="M11.916 21.409H9.39v-8.142h2.525zM10.671 12.164c-.818 0-1.458-.64-1.458-1.457 0-.818.64-1.458 1.458-1.458s1.458.64 1.458 1.458c0 .782-.64 1.457-1.458 1.457zM21.409 21.409h-2.525v-3.947c0-.96 0-2.169-1.315-2.169-1.316 0-1.529 1.031-1.529 2.098v4.018h-2.524v-8.142h2.417v1.102h.036c.32-.64 1.173-1.316 2.382-1.316 2.56 0 3.022 1.671 3.022 3.876v4.48h.036z"/>
        </g>
    </g>
</svg>
