<svg xmlns="http://www.w3.org/2000/svg" width="14" height="14" viewBox="0 0 14 14">
    <g fill="none" fill-rule="evenodd" transform="translate(-9 -9)">
        <circle cx="16" cy="16" r="16" stroke="#000"/>
        <g fill="#000" fill-rule="nonzero">
            <path d="M14.087 19.42a.5.5 0 0 1-.707-.707l5.333-5.333a.5.5 0 0 1 .707.707l-5.333 5.333z"/>
            <path d="M15.687 13.554a.5.5 0 1 1-.707-.708l1.783-1.783a3.518 3.518 0 0 1 4.974 4.974l-1.783 1.783a.5.5 0 0 1-.708-.707l1.784-1.783a2.518 2.518 0 0 0-3.56-3.56l-1.783 1.784zM12.846 14.98a.5.5 0 0 1 .708.707L11.77 17.47a2.518 2.518 0 0 0 3.56 3.56l1.783-1.784a.5.5 0 1 1 .707.708l-1.783 1.783a3.518 3.518 0 0 1-4.974-4.974l1.783-1.783z"/>
        </g>
    </g>
</svg>
